<svg xmlns="http://www.w3.org/2000/svg" width="12.5" height="17.5" viewBox="0 0 12.5 17.5">
  <path id="Icon_awesome-rupee-sign" data-name="Icon awesome-rupee-sign" d="M12.031,4.75a.469.469,0,0,0,.469-.469V2.719a.469.469,0,0,0-.469-.469H.469A.469.469,0,0,0,0,2.719V4.467a.469.469,0,0,0,.469.469H3.8A2.818,2.818,0,0,1,6.182,6H.469A.469.469,0,0,0,0,6.469V8.031A.469.469,0,0,0,.469,8.5h6.2a2.7,2.7,0,0,1-2.92,2.29H.469A.469.469,0,0,0,0,11.259V13.33a.469.469,0,0,0,.151.344L6.6,19.626a.469.469,0,0,0,.318.124h3.225a.469.469,0,0,0,.318-.813L4.565,13.5a5.351,5.351,0,0,0,5.4-5h2.063a.469.469,0,0,0,.469-.469V6.469A.469.469,0,0,0,12.031,6H9.739a5.351,5.351,0,0,0-.557-1.25Z" transform="translate(0 -2.25)"/>
</svg>
